<?xml version="1.0" encoding="UTF-8" standalone="no"?>
<svg
   xmlns:dc="http://purl.org/dc/elements/1.1/"
   xmlns:cc="http://creativecommons.org/ns#"
   xmlns:rdf="http://www.w3.org/1999/02/22-rdf-syntax-ns#"
   xmlns:svg="http://www.w3.org/2000/svg"
   xmlns="http://www.w3.org/2000/svg"
   xmlns:sodipodi="http://sodipodi.sourceforge.net/DTD/sodipodi-0.dtd"
   xmlns:inkscape="http://www.inkscape.org/namespaces/inkscape"
   enable-background="new 0 0 26 26"
   id="Слой_1"
   version="1.1"
   viewBox="0 0 26 26"
   xml:space="preserve"
   sodipodi:docname="ex.svg"
   inkscape:version="0.92.2 (5c3e80d, 2017-08-06)"><metadata
     id="metadata9"><rdf:RDF><cc:Work
         rdf:about=""><dc:format>image/svg+xml</dc:format><dc:type
           rdf:resource="http://purl.org/dc/dcmitype/StillImage" /><dc:title></dc:title></cc:Work></rdf:RDF></metadata><defs
     id="defs7" /><sodipodi:namedview
     pagecolor="#ffffff"
     bordercolor="#666666"
     borderopacity="1"
     objecttolerance="10"
     gridtolerance="10"
     guidetolerance="10"
     inkscape:pageopacity="0"
     inkscape:pageshadow="2"
     inkscape:window-width="725"
     inkscape:window-height="480"
     id="namedview5"
     showgrid="false"
     inkscape:zoom="9.0769231"
     inkscape:cx="13"
     inkscape:cy="13"
     inkscape:window-x="0"
     inkscape:window-y="0"
     inkscape:window-maximized="0"
     inkscape:current-layer="Слой_1" /><path
     d="M14.0605469,13L24.7802734,2.2802734c0.2929688-0.2929688,0.2929688-0.7675781,0-1.0605469  s-0.7675781-0.2929688-1.0605469,0L13,11.9394531L2.2802734,1.2197266c-0.2929688-0.2929688-0.7675781-0.2929688-1.0605469,0  s-0.2929688,0.7675781,0,1.0605469L11.9394531,13L1.2197266,23.7197266c-0.2929688,0.2929688-0.2929688,0.7675781,0,1.0605469  C1.3662109,24.9267578,1.5576172,25,1.75,25s0.3837891-0.0732422,0.5302734-0.2197266L13,14.0605469l10.7197266,10.7197266  C23.8662109,24.9267578,24.0576172,25,24.25,25s0.3837891-0.0732422,0.5302734-0.2197266  c0.2929688-0.2929688,0.2929688-0.7675781,0-1.0605469L14.0605469,13z"
     fill="#1D1D1B"
     id="path2"
     style="fill:#ffffff" /></svg>