<?xml version="1.0" ?><!DOCTYPE svg  PUBLIC '-//W3C//DTD SVG 1.1//EN'  'http://www.w3.org/Graphics/SVG/1.1/DTD/svg11.dtd'><svg enable-background="new 0 0 64 64" id="Layer_1" version="1.1" viewBox="0 0 64 64" xml:space="preserve" xmlns="http://www.w3.org/2000/svg" xmlns:xlink="http://www.w3.org/1999/xlink"><g><path d="M64,21.6c0-0.1,0-0.1,0-0.2c0-0.1-0.1-0.1-0.1-0.2c0,0,0-0.1-0.1-0.1c0,0,0,0,0,0c0-0.1-0.1-0.1-0.2-0.1    c0,0-0.1-0.1-0.1-0.1c-0.1,0-0.1,0-0.2,0c-0.1,0-0.1-0.1-0.2-0.1c0,0,0,0,0,0H1c0,0,0,0,0,0c-0.1,0-0.1,0-0.2,0.1    c-0.1,0-0.1,0-0.2,0c-0.1,0-0.1,0.1-0.2,0.1c-0.1,0-0.1,0.1-0.2,0.1c0,0,0,0,0,0c0,0,0,0.1-0.1,0.1c0,0.1-0.1,0.1-0.1,0.2    c0,0.1,0,0.1,0,0.2c0,0,0,0.1,0,0.1v40.6c0,0.6,0.4,1.4,1,1.4h62c0.6,0,1-0.9,1-1.4V21.7C64,21.7,64,21.6,64,21.6z M36.1,46    l-3.9,3.9L28.4,46c-0.8-0.9-0.8-2.3,0-3.2c0.2-0.2,0.4-0.3,0.7-0.3c0.7,0,1.6,0.5,2.4,1.2c0.4,0.4,1,0.4,1.4,0    c0.8-0.8,1.8-1.2,2.4-1.2c0.3,0,0.5,0.1,0.7,0.3C36.9,43.7,37,45.1,36.1,46z M37.5,41.4c-0.6-0.6-1.3-0.9-2.1-0.9    c-1.2,0-2.4,0.6-3.1,1.2c-0.7-0.6-1.9-1.2-3.1-1.2c-0.8,0-1.6,0.3-2.1,0.9c-0.1,0.1-0.2,0.3-0.4,0.4L3.8,22.7h56.5L37.6,41.6    C37.6,41.6,37.5,41.5,37.5,41.4z M2,61.7V23.9l23.8,19.9c-0.2,1.3,0.2,2.6,1.1,3.6l4.6,4.7c0.2,0.2,0.4,0.3,0.7,0.3c0,0,0,0,0,0    c0.3,0,0.5-0.1,0.7-0.3l4.6-4.7c1-1.1,1.4-2.6,1-4L62,23.9v37.8H2z" fill="#4D4D4D"/></g></svg>