<?xml version="1.0" encoding="UTF-8" standalone="no"?>
<svg
   xmlns:dc="http://purl.org/dc/elements/1.1/"
   xmlns:cc="http://creativecommons.org/ns#"
   xmlns:rdf="http://www.w3.org/1999/02/22-rdf-syntax-ns#"
   xmlns:svg="http://www.w3.org/2000/svg"
   xmlns="http://www.w3.org/2000/svg"
   xmlns:sodipodi="http://sodipodi.sourceforge.net/DTD/sodipodi-0.dtd"
   xmlns:inkscape="http://www.inkscape.org/namespaces/inkscape"
   enable-background="new 0 0 500 500"
   id="Layer_1"
   version="1.1"
   viewBox="0 0 500 500"
   xml:space="preserve"
   sodipodi:docname="trucks.svg"
   inkscape:version="0.92.2 (5c3e80d, 2017-08-06)"><metadata
     id="metadata29"><rdf:RDF><cc:Work
         rdf:about=""><dc:format>image/svg+xml</dc:format><dc:type
           rdf:resource="http://purl.org/dc/dcmitype/StillImage" /><dc:title></dc:title></cc:Work></rdf:RDF></metadata><defs
     id="defs27" /><sodipodi:namedview
     pagecolor="#ffffff"
     bordercolor="#666666"
     borderopacity="1"
     objecttolerance="10"
     gridtolerance="10"
     guidetolerance="10"
     inkscape:pageopacity="0"
     inkscape:pageshadow="2"
     inkscape:window-width="725"
     inkscape:window-height="480"
     id="namedview25"
     showgrid="false"
     inkscape:zoom="0.472"
     inkscape:cx="250"
     inkscape:cy="250"
     inkscape:window-x="0"
     inkscape:window-y="0"
     inkscape:window-maximized="0"
     inkscape:current-layer="Layer_1" /><g
     id="g22"
     style="fill:#4d4d4d"><g
       id="g4"
       style="fill:#4d4d4d"><polygon
         points="469.5,359.5 414.8,359.5 414.8,332.1 442.1,332.1 442.1,252.2 418.6,181.5 318.9,181.5 318.9,332.1 332.6,332.1     332.6,359.5 291.6,359.5 291.6,154.1 438.3,154.1 469.5,247.7   "
         id="polygon2"
         style="fill:#4d4d4d" /></g><g
       id="g8"
       style="fill:#4d4d4d"><path
         d="M373.7,400.5c-30.2,0-54.8-24.6-54.8-54.8s24.6-54.8,54.8-54.8c30.2,0,54.8,24.6,54.8,54.8S403.9,400.5,373.7,400.5z     M373.7,318.4c-15.1,0-27.4,12.3-27.4,27.4c0,15.1,12.3,27.4,27.4,27.4c15.1,0,27.4-12.3,27.4-27.4    C401.1,330.7,388.8,318.4,373.7,318.4z"
         id="path6"
         style="fill:#4d4d4d" /></g><g
       id="g12"
       style="fill:#4d4d4d"><polygon
         points="318.9,359.5 182.1,359.5 182.1,332.1 291.6,332.1 291.6,126.8 58.9,126.8 58.9,332.1 99.9,332.1 99.9,359.5     31.5,359.5 31.5,99.4 318.9,99.4   "
         id="polygon10"
         style="fill:#4d4d4d" /></g><g
       id="g16"
       style="fill:#4d4d4d"><path
         d="M141,400.5c-30.2,0-54.8-24.6-54.8-54.8S110.8,291,141,291s54.8,24.6,54.8,54.8S171.2,400.5,141,400.5z M141,318.4    c-15.1,0-27.4,12.3-27.4,27.4c0,15.1,12.3,27.4,27.4,27.4s27.4-12.3,27.4-27.4C168.4,330.7,156.1,318.4,141,318.4z"
         id="path14"
         style="fill:#4d4d4d" /></g><g
       id="g20"
       style="fill:#4d4d4d"><polygon
         points="168.4,269.3 103.9,204.9 123.3,185.5 168.4,230.6 240.8,158.2 260.2,177.5   "
         id="polygon18"
         style="fill:#4d4d4d" /></g></g></svg>